<svg width="430" height="187" viewBox="0 0 430 187" fill="none" xmlns="http://www.w3.org/2000/svg">
<path d="M126.022 40.9005C61.76 43.7145 13.8982 35.7279 -2 31.3828L-2 249.255L429.76 248.841V0.13995C429.091 -0.135926 422.933 -0.191101 403.654 1.7952C384.375 3.7815 335.041 14.4855 312.783 19.5892C277.305 25.5205 190.284 38.0866 126.022 40.9005Z" fill="#8BE9E0"/>
<path d="M126.022 63.1559C61.76 65.9698 13.8982 57.9832 -2 53.6382L-2 271.511L429.76 271.097V22.3953C429.091 22.1194 422.933 22.0643 403.654 24.0506C384.375 26.0369 335.041 36.7408 312.783 41.8445C277.305 47.7758 190.284 60.342 126.022 63.1559Z" fill="#3DDBCB"/>
<path d="M126.022 85.4113C61.76 88.2252 13.8982 80.2386 -2 75.8936L-2 293.766L429.76 293.352V44.6507C429.091 44.3748 422.933 44.3196 403.654 46.3059C384.375 48.2922 335.041 58.9962 312.783 64.0999C277.305 70.0312 190.284 82.5973 126.022 85.4113Z" fill="#38C5B6"/>
</svg>
