<svg width="430" height="249" viewBox="0 0 430 249" fill="none" xmlns="http://www.w3.org/2000/svg">
    <path d="M128.022 40.9005C63.76 43.7145 15.8982 35.7279 0 31.3828L0 249.255L431.76 248.841V0.13995C431.091 -0.135926 424.933 -0.191101 405.654 1.7952C386.375 3.7815 337.041 14.4855 314.783 19.5892C279.305 25.5205 192.284 38.0866 128.022 40.9005Z" fill="#32D9C8"/>
    <path d="M128.022 71.9005C63.76 74.7145 15.8982 66.7279 0 62.3828L0 280.255L431.76 279.841V31.1399C431.091 30.8641 424.933 30.8089 405.654 32.7952C386.375 34.7815 337.041 45.4855 314.783 50.5892C279.305 56.5205 192.284 69.0866 128.022 71.9005Z" fill="#0FBFBF"/>
    <path d="M134.406 95.7885C132.725 97.3521 137.384 99.6621 137.149 101.965C136.93 104.112 135.358 106.385 133.465 107.301C117.363 115.084 100.468 119.341 85.8534 129.091C78.8627 133.755 70.6304 143.804 68.1128 147.424C57.4843 143.06 44.9316 147.657 45.1063 148.039C45.1063 148.039 51.7581 149.643 54.745 151.246C57.1065 152.513 58.8284 154.804 61.1141 156.21C61.7686 156.612 62.5884 156.727 63.1954 157.201C66.5055 159.791 68.2199 166.17 68.2199 166.17C70.3297 166.606 78.3512 156.628 72.5389 150.294C75.2127 148.235 83.0153 143.076 88.8303 140.921C95.7219 138.368 103.073 137.147 110.291 136.935C119.669 136.66 129.238 137.538 138.062 140.476C149.186 144.179 169.409 151.659 172.092 153.221C173.927 154.289 168.61 153.193 167.219 154.169C165.43 155.425 165.286 158.315 163.684 159.828C161.12 162.25 153.896 163.147 154.506 164.758C155.279 166.8 163.058 166.937 167.265 165.885C173.087 164.429 178.035 155.879 182.774 156.052C189.238 156.287 196.842 164.385 203.964 168.392C206.661 169.908 209.629 174.882 212.123 172.815C214.398 170.93 210.425 167.153 210.207 164.195C210.037 161.888 211.03 159.516 210.698 157.235C209.881 151.632 207.813 146.128 204.727 141.565C197.769 131.275 188.524 121.698 177.521 116.771C166.808 111.972 160.183 112.515 154.602 109.157C149.482 106.075 140.773 95.0682 134.406 95.7879L134.406 95.7885ZM103.058 126.131C103.058 126.131 135.975 116.385 148.566 115.79C162.722 115.121 170.92 116.694 177.92 122.16C184.92 127.625 182.549 129.736 180.462 131.288C175.783 133.047 173.253 125.818 176.196 127.286C175.787 125.056 167.741 120.983 167.047 123.394C166.476 125.379 173.208 132.257 164.371 126.483C151.275 117.926 106.401 126.504 103.06 126.132L103.058 126.131ZM204.277 154.389C204.432 154.725 206.98 155.275 207.105 156.502C207.154 156.982 206.66 157.668 206.201 157.648C204.963 157.593 204.277 154.389 204.277 154.389Z" fill="white"/>
</svg>
