<svg width="117" height="85" viewBox="0 0 117 85" fill="none" xmlns="http://www.w3.org/2000/svg">
    <path d="M65.9996 2.17039C61.4297 5.14899 58.4919 6.78111 57.227 7.02592C56.3702 7.18913 54.9013 6.65869 51.1066 4.74096C45.3942 1.84396 43.0685 1.10951 38.1313 0.783089C34.6631 0.497467 34.5407 0.538277 31.5213 2.00717C28.5427 3.47607 24.9112 6.29147 20.0149 10.9022C17.0363 13.6768 13.4456 19.4708 11.8951 23.9591C11.0383 26.5297 9.61016 35.1799 9.61016 38.1585C9.61016 38.4849 8.42688 40.1986 6.99878 41.9531C2.75529 47.1759 0.633545 52.2762 0.633545 57.2542C0.633545 62.1913 3.32653 70.9639 4.99945 71.5352C5.28506 71.6168 6.30514 70.8415 7.2436 69.7806C9.07973 67.7405 13.4048 65.0883 14.8329 65.0883C15.4042 65.0883 16.057 65.6187 16.7099 66.6388C18.2196 69.0462 23.5647 74.2689 26.3393 76.1051C30.0524 78.4716 37.2337 82.0215 39.8042 82.7559C43.2317 83.6944 47.516 84.2656 51.5554 84.2656C56.1254 84.2656 63.9595 83.4904 64.4899 83.0007C64.694 82.7967 65.1836 82.6335 65.6324 82.6335C66.5301 82.6335 74.5274 79.9813 76.0779 79.2061C80.7703 76.7171 87.7475 70.2703 91.175 65.1699C93.2151 62.1505 94.072 61.5385 97.2138 60.804C98.5195 60.4776 101.498 59.3351 103.865 58.2334C110.597 55.0508 113.617 52.7251 116.228 48.6856C117.37 46.8495 117.166 46.4006 115.208 46.6046C114.229 46.6862 111.984 46.8903 110.23 47.0943C108.435 47.2575 104.966 47.2575 102.477 47.0535C97.173 46.6454 96.6425 46.8495 94.7656 50.3177C93.3783 52.8883 92.6439 52.7251 92.9703 49.9097C93.2967 47.3391 92.8071 46.115 91.1342 45.2581C87.9516 43.626 79.2606 36.0775 77.8733 33.7926C76.6084 31.63 75.7923 31.8748 74.6906 34.731C72.8137 39.6274 75.5475 50.6033 79.4646 53.8675C80.9335 55.1324 80.8927 56.0709 79.3014 57.703C77.302 59.7431 76.69 60.0696 72.5281 61.1712C69.1823 62.0689 68.3662 62.1505 65.3876 61.8241C61.5521 61.4161 55.5133 59.4167 53.0652 57.7438C49.7601 55.4588 46.2511 50.7257 45.5574 47.5431C45.027 45.0949 45.3942 38.8521 46.1695 36.3223C47.0263 33.6702 49.8009 28.529 51.3514 26.7745C53.3916 24.4079 56.4926 21.9597 62.4906 17.9611C71.712 11.759 73.793 8.98445 72.8545 4.00652C72.0793 -0.35939 70.5288 -0.767418 65.9996 2.17039Z" fill="black"/>
</svg>
