<svg width="166" height="91" viewBox="0 0 166 91" fill="none" xmlns="http://www.w3.org/2000/svg">
<path d="M64.7507 0.706107C63.7391 2.76704 68.9158 3.26042 69.5191 5.49547C70.0816 7.57925 69.4253 10.2636 67.9842 11.7947C55.7248 24.8162 41.4645 34.8274 31.2973 49.1547C26.4338 56.0082 22.3338 68.3341 21.2756 72.6153C9.78932 72.3351 -0.293062 81.1132 0.00651036 81.4072C0.00651036 81.4072 6.79253 80.5298 10.1549 80.9599C12.8132 81.3 15.2399 82.8246 17.8767 83.3208C18.6318 83.4629 19.4385 83.2772 20.175 83.5038C24.1918 84.7403 28.0718 90.0863 28.0718 90.0863C30.1979 89.7395 34.1261 77.5545 26.4348 73.7146C28.1967 70.8364 33.6417 63.2305 38.3034 59.1406C43.8283 54.294 50.2583 50.5282 56.9246 47.7522C65.5859 44.1455 74.8367 41.5476 84.1283 41.139C95.8406 40.6243 117.401 40.3873 120.466 40.8881C122.561 41.2303 117.203 42.1055 116.253 43.5143C115.031 45.3261 115.928 48.0777 114.972 50.0629C113.442 53.2407 107.015 56.6594 108.161 57.9453C109.612 59.5763 116.927 56.9263 120.481 54.4405C125.399 51.0012 126.966 41.248 131.454 39.7164C137.576 37.6273 147.57 42.4752 155.654 43.6731C158.715 44.1266 163.264 47.7122 164.855 44.8906C166.306 42.3172 161.246 40.2083 159.986 37.5232C159.003 35.4289 159.083 32.8594 157.958 30.8477C155.195 25.9059 151.296 21.5037 146.784 18.3438C136.609 11.2183 124.553 5.57548 112.517 4.90298C100.796 4.24833 94.8019 7.12147 88.39 5.97822C82.5065 4.9292 70.4409 -2.24122 64.7507 0.705517V0.706107ZM46.3092 40.2443C46.3092 40.2443 73.5735 19.3834 85.121 14.3303C98.1041 8.64869 106.324 7.18972 114.814 9.79403C123.305 12.3986 121.844 15.217 120.449 17.4125C116.707 20.727 111.762 14.8784 115.035 15.1987C113.856 13.2613 104.886 12.331 105.1 14.831C105.275 16.8892 114.02 20.9087 103.703 18.6718C88.4149 15.3573 49.565 39.3983 46.3115 40.245L46.3092 40.2443ZM150.945 30.482C151.209 30.7412 153.786 30.3448 154.341 31.446C154.558 31.8766 154.341 32.6939 153.906 32.8395C152.73 33.2304 150.945 30.482 150.945 30.482Z" fill="white"/>
</svg>
